
<svg xmlns="http://www.w3.org/2000/svg" xmlns:xlink="http://www.w3.org/1999/xlink" width="86" zoomAndPan="magnify" viewBox="0 0 64.5 30.000001" height="40" preserveAspectRatio="xMidYMid meet" version="1.0"><defs><g/><clipPath id="0c5e2d7593"><path d="M 0.796875 0 L 63.21875 0 L 63.21875 29.03125 L 0.796875 29.03125 Z M 0.796875 0 " clip-rule="nonzero"/></clipPath></defs><g clip-path=""><path fill="transparent" d="M 0.796875 0 L 63.21875 0 L 63.21875 29.03125 L 0.796875 29.03125 Z M 0.796875 0 " fill-opacity="1" fill-rule="nonzero"/><path fill="transparent" d="M 0.796875 0 L 63.21875 0 L 63.21875 29.03125 L 0.796875 29.03125 Z M 0.796875 0 " fill-opacity="1" fill-rule="nonzero"/></g><g fill="#fff" fill-opacity="1"><g transform="translate(5.212196, 18.145163)"><g><path d="M 1.046875 -10.828125 C 1.328125 -11.109375 1.660156 -11.25 2.046875 -11.25 C 2.429688 -11.25 2.765625 -11.109375 3.046875 -10.828125 C 3.328125 -10.546875 3.46875 -10.207031 3.46875 -9.8125 C 3.46875 -9.425781 3.328125 -9.09375 3.046875 -8.8125 C 2.765625 -8.539062 2.429688 -8.40625 2.046875 -8.40625 C 1.660156 -8.40625 1.328125 -8.539062 1.046875 -8.8125 C 0.765625 -9.09375 0.625 -9.425781 0.625 -9.8125 C 0.625 -10.207031 0.765625 -10.546875 1.046875 -10.828125 Z M 0.8125 -6.953125 L 0.8125 0 L 3.203125 0 L 3.203125 -6.953125 Z M 0.8125 -6.953125 "/></g></g></g><g fill="#fff" fill-opacity="1"><g transform="translate(9.301525, 18.145163)"><g><path d="M 7.953125 -6.09375 C 8.609375 -5.382812 8.9375 -4.515625 8.9375 -3.484375 C 8.9375 -2.453125 8.609375 -1.578125 7.953125 -0.859375 C 7.304688 -0.148438 6.484375 0.203125 5.484375 0.203125 C 4.566406 0.203125 3.804688 -0.0820312 3.203125 -0.65625 L 3.203125 3.515625 L 0.8125 3.515625 L 0.8125 -6.953125 L 3.1875 -6.953125 L 3.1875 -6.15625 L 3.203125 -6.15625 C 3.804688 -6.820312 4.566406 -7.15625 5.484375 -7.15625 C 6.484375 -7.15625 7.304688 -6.800781 7.953125 -6.09375 Z M 5.921875 -2.296875 C 6.234375 -2.609375 6.390625 -3.003906 6.390625 -3.484375 C 6.390625 -3.960938 6.238281 -4.351562 5.9375 -4.65625 C 5.644531 -4.957031 5.253906 -5.109375 4.765625 -5.109375 C 4.296875 -5.109375 3.910156 -4.953125 3.609375 -4.640625 C 3.304688 -4.335938 3.15625 -3.953125 3.15625 -3.484375 C 3.15625 -3.003906 3.3125 -2.609375 3.625 -2.296875 C 3.9375 -1.992188 4.316406 -1.84375 4.765625 -1.84375 C 5.222656 -1.84375 5.609375 -1.992188 5.921875 -2.296875 Z M 5.921875 -2.296875 "/></g></g></g><g fill="#fff" fill-opacity="1"><g transform="translate(18.549909, 18.145163)"><g><path d="M 1.21875 -6.953125 L 1.21875 -9.53125 L 3.609375 -9.53125 L 3.609375 -6.953125 L 5.078125 -6.953125 L 5.078125 -5.125 L 3.609375 -5.125 L 3.609375 -2.90625 C 3.609375 -2.269531 3.789062 -1.953125 4.15625 -1.953125 C 4.25 -1.953125 4.34375 -1.96875 4.4375 -2 C 4.539062 -2.039062 4.617188 -2.078125 4.671875 -2.109375 L 4.75 -2.171875 L 5.34375 -0.234375 C 4.832031 0.0546875 4.25 0.203125 3.59375 0.203125 C 3.132812 0.203125 2.742188 0.125 2.421875 -0.03125 C 2.097656 -0.1875 1.851562 -0.394531 1.6875 -0.65625 C 1.519531 -0.925781 1.398438 -1.207031 1.328125 -1.5 C 1.253906 -1.800781 1.21875 -2.117188 1.21875 -2.453125 L 1.21875 -5.125 L 0.21875 -5.125 L 0.21875 -6.953125 Z M 1.21875 -6.953125 "/></g></g></g><g fill="#fff" fill-opacity="1"><g transform="translate(23.898534, 18.145163)"><g><path d="M 2.578125 -6.953125 L 4.265625 -3.171875 L 5.953125 -6.953125 L 8.8125 -6.953125 L 5.078125 0 L 3.453125 0 L -0.265625 -6.953125 Z M 2.578125 -6.953125 "/></g></g></g><g fill="#fff" fill-opacity="1"><g transform="translate(32.429252, 18.145163)"><g><path d="M 7.84375 -3.140625 L 2.796875 -3.140625 C 2.796875 -2.648438 2.953125 -2.285156 3.265625 -2.046875 C 3.585938 -1.816406 3.9375 -1.703125 4.3125 -1.703125 C 4.695312 -1.703125 5 -1.753906 5.21875 -1.859375 C 5.445312 -1.960938 5.707031 -2.171875 6 -2.484375 L 7.734375 -1.609375 C 7.015625 -0.398438 5.8125 0.203125 4.125 0.203125 C 3.082031 0.203125 2.1875 -0.15625 1.4375 -0.875 C 0.6875 -1.59375 0.3125 -2.457031 0.3125 -3.46875 C 0.3125 -4.476562 0.6875 -5.34375 1.4375 -6.0625 C 2.1875 -6.789062 3.082031 -7.15625 4.125 -7.15625 C 5.226562 -7.15625 6.125 -6.835938 6.8125 -6.203125 C 7.507812 -5.566406 7.859375 -4.65625 7.859375 -3.46875 C 7.859375 -3.300781 7.851562 -3.191406 7.84375 -3.140625 Z M 2.875 -4.46875 L 5.515625 -4.46875 C 5.460938 -4.832031 5.316406 -5.109375 5.078125 -5.296875 C 4.847656 -5.492188 4.554688 -5.59375 4.203125 -5.59375 C 3.804688 -5.59375 3.488281 -5.488281 3.25 -5.28125 C 3.019531 -5.070312 2.894531 -4.800781 2.875 -4.46875 Z M 2.875 -4.46875 "/></g></g></g><g fill="#fff" fill-opacity="1"><g transform="translate(40.594375, 18.145163)"><g><path d="M 0.5 1.703125 L 2.46875 0.75 C 2.820312 1.34375 3.445312 1.640625 4.34375 1.640625 C 4.757812 1.640625 5.144531 1.503906 5.5 1.234375 C 5.863281 0.972656 6.046875 0.566406 6.046875 0.015625 L 6.046875 -0.5 C 5.617188 -0.03125 4.859375 0.203125 3.765625 0.203125 C 2.765625 0.203125 1.9375 -0.148438 1.28125 -0.859375 C 0.632812 -1.566406 0.3125 -2.4375 0.3125 -3.46875 C 0.3125 -4.5 0.632812 -5.367188 1.28125 -6.078125 C 1.9375 -6.796875 2.765625 -7.15625 3.765625 -7.15625 C 4.660156 -7.15625 5.40625 -6.878906 6 -6.328125 L 6.046875 -6.328125 L 6.046875 -6.953125 L 8.4375 -6.953125 L 8.4375 0.1875 C 8.4375 1.320312 8.0625 2.191406 7.3125 2.796875 C 6.5625 3.410156 5.570312 3.71875 4.34375 3.71875 C 2.363281 3.71875 1.082031 3.046875 0.5 1.703125 Z M 3.328125 -4.640625 C 3.015625 -4.335938 2.859375 -3.945312 2.859375 -3.46875 C 2.859375 -2.988281 3.003906 -2.597656 3.296875 -2.296875 C 3.597656 -1.992188 3.992188 -1.84375 4.484375 -1.84375 C 4.953125 -1.84375 5.335938 -1.992188 5.640625 -2.296875 C 5.941406 -2.609375 6.09375 -3 6.09375 -3.46875 C 6.09375 -3.945312 5.9375 -4.335938 5.625 -4.640625 C 5.3125 -4.953125 4.929688 -5.109375 4.484375 -5.109375 C 4.023438 -5.109375 3.640625 -4.953125 3.328125 -4.640625 Z M 3.328125 -4.640625 "/></g></g></g><g fill="#fff" fill-opacity="1"><g transform="translate(49.842759, 18.145163)"><g><path d="M 1.46875 -0.828125 C 0.695312 -1.515625 0.3125 -2.394531 0.3125 -3.46875 C 0.3125 -4.539062 0.710938 -5.421875 1.515625 -6.109375 C 2.316406 -6.804688 3.3125 -7.15625 4.5 -7.15625 C 5.664062 -7.15625 6.644531 -6.804688 7.4375 -6.109375 C 8.238281 -5.410156 8.640625 -4.53125 8.640625 -3.46875 C 8.640625 -2.40625 8.25 -1.523438 7.46875 -0.828125 C 6.6875 -0.140625 5.695312 0.203125 4.5 0.203125 C 3.25 0.203125 2.238281 -0.140625 1.46875 -0.828125 Z M 3.328125 -4.640625 C 3.015625 -4.335938 2.859375 -3.945312 2.859375 -3.46875 C 2.859375 -2.988281 3.003906 -2.597656 3.296875 -2.296875 C 3.597656 -1.992188 3.992188 -1.84375 4.484375 -1.84375 C 4.953125 -1.84375 5.335938 -1.992188 5.640625 -2.296875 C 5.941406 -2.609375 6.09375 -3 6.09375 -3.46875 C 6.09375 -3.945312 5.9375 -4.335938 5.625 -4.640625 C 5.3125 -4.953125 4.929688 -5.109375 4.484375 -5.109375 C 4.023438 -5.109375 3.640625 -4.953125 3.328125 -4.640625 Z M 3.328125 -4.640625 "/></g></g></g></svg>